<?xml version="1.0" encoding="utf-8"?>
<!-- Generator: Adobe Adobe Illustrator 29.2.0, SVG Export Plug-In . SVG Version: 6.00 Build 0)  -->
<svg version="1.1" id="Layer_1" xmlns="http://www.w3.org/2000/svg" xmlns:xlink="http://www.w3.org/1999/xlink" x="0px" y="0px"
	 viewBox="0 0 236 210" style="enable-background:new 0 0 236 210;" xml:space="preserve">
<style type="text/css">
	
		.st0{fill-rule:evenodd;clip-rule:evenodd;fill:url(#Alakzat_5_00000148641634693626714290000015104842112297747112_);stroke:#919191;stroke-miterlimit:10;}
	
		.st1{fill-rule:evenodd;clip-rule:evenodd;fill:url(#Alakzat_1_00000121274425762167039980000005748216392852972214_);stroke:#919191;stroke-miterlimit:10;}
	.st2{fill:url(#Alakzat_3_00000065043567639496913010000001661621030125124230_);stroke:#919191;stroke-miterlimit:10;}
	.st3{fill:url(#Alakzat_6_00000094584236465423136490000012831773211594454950_);stroke:#919191;stroke-miterlimit:10;}
	.st4{fill:url(#Alakzat_9_00000083768168924900707530000002991062593575150986_);stroke:#3D3D3D;stroke-miterlimit:10;}
	
		.st5{fill-rule:evenodd;clip-rule:evenodd;fill:url(#Alakzat_5_00000044149136921957959180000014591788572600939925_);stroke:#3D3D3D;stroke-miterlimit:10;}
	
		.st6{fill-rule:evenodd;clip-rule:evenodd;fill:url(#Alakzat_1_00000003107064495060472810000002460907732552301975_);stroke:#3D3D3D;stroke-miterlimit:10;}
	.st7{fill:url(#Alakzat_3_00000062886684023146446100000017765480056241242044_);stroke:#3D3D3D;stroke-miterlimit:10;}
	.st8{fill:url(#Alakzat_6_00000011744024394121293270000017928108334496670118_);stroke:#3D3D3D;stroke-miterlimit:10;}
	.st9{fill:url(#Alakzat_7_00000013912662266631400670000013992080298980869816_);stroke:#3D3D3D;stroke-miterlimit:10;}
	.st10{fill:url(#Alakzat_8_00000169560447439022134450000003615765349889407619_);stroke:#3D3D3D;stroke-miterlimit:10;}
	.st11{fill:url(#Alakzat_9_00000127037782406013334670000016402770546067502996_);stroke:#3D3D3D;stroke-miterlimit:10;}
	.st12{fill:url(#Alakzat_7_00000147907293233974887440000015089085328752104877_);stroke:#3D3D3D;stroke-miterlimit:10;}
	.st13{fill:url(#Alakzat_8_00000140723125267027763770000008954876750734367879_);stroke:#3D3D3D;stroke-miterlimit:10;}
	.st14{fill:#3D3D3D;}
	.st15{font-family:'AGaramondPro-Regular';}
	.st16{font-size:18px;}
	.st17{font-size:12px;}
</style>
<g id="Layer_1_00000152231066939347310880000013657449080370534806_">
	
		<radialGradient id="Alakzat_9_00000060004423870897750730000008547784978733665715_" cx="146.7782" cy="98.5441" r="58.3293" gradientTransform="matrix(0.903 0 0 0.903 9.9226 12.7125)" gradientUnits="userSpaceOnUse">
		<stop  offset="0" style="stop-color:#A6A6A6"/>
		<stop  offset="1" style="stop-color:#FFFFFF"/>
	</radialGradient>
	
		<path id="Alakzat_9" style="fill:url(#Alakzat_9_00000060004423870897750730000008547784978733665715_);stroke:#3D3D3D;stroke-miterlimit:10;" d="
		M156.7,57.4h11L188,77.6L122.2,146l-5.4-5.8L175,78.9l-3.4-3L113.1,136l-6.1-6.3l58.2-60.8l-3.3-3.3l-59,60.4l-6.1-6.1L156.7,57.4z
		"/>
	
		<radialGradient id="Alakzat_7_00000034778325037484902530000004976251182767262602_" cx="125.0282" cy="64.7341" r="36.9925" gradientTransform="matrix(0.903 0 0 0.903 9.9226 10.6662)" gradientUnits="userSpaceOnUse">
		<stop  offset="0" style="stop-color:#B0B0B0"/>
		<stop  offset="1" style="stop-color:#FFFFFF"/>
	</radialGradient>
	
		<path id="Alakzat_7" style="fill:url(#Alakzat_7_00000034778325037484902530000004976251182767262602_);stroke:#3D3D3D;stroke-miterlimit:10;" d="
		M92.1,42.6h61.4l9,9.4l-27.8,0.4L92.8,95.7L86,89.9l35.4-37.4l-38.3-0.6L92.1,42.6z"/>
	
		<radialGradient id="Alakzat_8_00000136397741057608647310000009422939871406877617_" cx="100.0928" cy="86.2444" r="42.2221" gradientTransform="matrix(0.903 0 0 0.903 9.9226 12.272)" gradientUnits="userSpaceOnUse">
		<stop  offset="0" style="stop-color:#B5B5B5"/>
		<stop  offset="1" style="stop-color:#FFFFFF"/>
	</radialGradient>
	
		<path id="Alakzat_8" style="fill:url(#Alakzat_8_00000136397741057608647310000009422939871406877617_);stroke:#3D3D3D;stroke-miterlimit:10;" d="
		M97.4,58.2l12.6,0.1L80.6,90c0,0.2,13.5,12.7,13.5,12.7l43.4-44.8l12.1-0.1l-56,58.8L57.8,79.6l19.9-21.8l12.6,0.4L70.5,79.5
		l3.6,3.5L97.4,58.2z"/>
</g>
<radialGradient id="Alakzat_9_00000163072526224486965150000002193943481994465941_" cx="146.7782" cy="98.5441" r="58.3293" gradientTransform="matrix(0.903 0 0 0.903 9.9226 12.7125)" gradientUnits="userSpaceOnUse">
	<stop  offset="0" style="stop-color:#A6A6A6"/>
	<stop  offset="1" style="stop-color:#FFFFFF"/>
</radialGradient>
<path id="Alakzat_9_00000081636580158662244490000009381909705217932219_" style="fill:url(#Alakzat_9_00000163072526224486965150000002193943481994465941_);stroke:#3D3D3D;stroke-miterlimit:10;" d="
	M156.7,57.4h11L188,77.6L122.2,146l-5.4-5.8L175,78.9l-3.4-3L113.1,136l-6.1-6.3l58.2-60.8l-3.3-3.3l-59,60.4l-6.1-6.1L156.7,57.4z"
	/>
<radialGradient id="Alakzat_7_00000047764657966790259120000000046419565235000499_" cx="125.0282" cy="64.7341" r="36.9925" gradientTransform="matrix(0.903 0 0 0.903 9.9226 10.6662)" gradientUnits="userSpaceOnUse">
	<stop  offset="0" style="stop-color:#B0B0B0"/>
	<stop  offset="1" style="stop-color:#FFFFFF"/>
</radialGradient>
<path id="Alakzat_7_00000052805872047487278000000015789386408710504106_" style="fill:url(#Alakzat_7_00000047764657966790259120000000046419565235000499_);stroke:#3D3D3D;stroke-miterlimit:10;" d="
	M92.1,42.6h61.4l9,9.4l-27.8,0.4L92.8,95.7L86,89.9l35.4-37.4l-38.3-0.6L92.1,42.6z"/>
<radialGradient id="Alakzat_8_00000094611547508927648240000014748400279018682248_" cx="100.0928" cy="86.2444" r="42.2221" gradientTransform="matrix(0.903 0 0 0.903 9.9226 12.272)" gradientUnits="userSpaceOnUse">
	<stop  offset="0" style="stop-color:#B5B5B5"/>
	<stop  offset="1" style="stop-color:#FFFFFF"/>
</radialGradient>
<path id="Alakzat_8_00000158017336748243351170000013718692238143076520_" style="fill:url(#Alakzat_8_00000094611547508927648240000014748400279018682248_);stroke:#3D3D3D;stroke-miterlimit:10;" d="
	M97.4,58.2l12.6,0.1L80.6,90c0,0.2,13.5,12.7,13.5,12.7l43.4-44.8l12.1-0.1l-56,58.8L57.8,79.6l19.9-21.8l12.6,0.4L70.5,79.5
	l3.6,3.5L97.4,58.2z"/>
<text transform="matrix(1 0 0 1 85.5001 164.9408)" class="st14 st15 st16">CRYSTAL</text>
<text transform="matrix(1 0 0 1 98 181.9599)" class="st14 st15 st17">HEAVEN</text>
<polygon class="st14" points="188.6,177.7 149,176.7 149,178.8 "/>
<polygon class="st14" points="55.4,178 95,179.1 95,177 "/>
</svg>
