<?xml version="1.0" encoding="utf-8"?>
<!-- Generator: Adobe Adobe Illustrator 29.2.0, SVG Export Plug-In . SVG Version: 6.00 Build 0)  -->
<svg version="1.1" id="Layer_1" xmlns="http://www.w3.org/2000/svg" xmlns:xlink="http://www.w3.org/1999/xlink" x="0px" y="0px"
	 viewBox="0 0 236 210" style="enable-background:new 0 0 236 210;" xml:space="preserve">
<style type="text/css">
	
		.st0{fill-rule:evenodd;clip-rule:evenodd;fill:url(#Alakzat_5_00000023974836638764811550000004091825510600317853_);stroke:#919191;stroke-miterlimit:10;}
	
		.st1{fill-rule:evenodd;clip-rule:evenodd;fill:url(#Alakzat_1_00000119109852061838946920000007726372267654202006_);stroke:#919191;stroke-miterlimit:10;}
	.st2{fill:url(#Alakzat_3_00000036246814828269842960000008233340106035799681_);stroke:#919191;stroke-miterlimit:10;}
	.st3{fill:url(#Alakzat_6_00000095309136521826398100000013586550100503552941_);stroke:#919191;stroke-miterlimit:10;}
	.st4{fill:url(#Alakzat_9_00000081632564619719818640000011145335670036738234_);stroke:#3D3D3D;stroke-miterlimit:10;}
	
		.st5{fill-rule:evenodd;clip-rule:evenodd;fill:url(#Alakzat_5_00000006677896126198823110000014486238745290196917_);stroke:#3D3D3D;stroke-miterlimit:10;}
	
		.st6{fill-rule:evenodd;clip-rule:evenodd;fill:url(#Alakzat_1_00000028308329923697509160000009779726322500977567_);stroke:#3D3D3D;stroke-miterlimit:10;}
	.st7{fill:url(#Alakzat_3_00000013903484218617304390000008058923185101963650_);stroke:#3D3D3D;stroke-miterlimit:10;}
	.st8{fill:url(#Alakzat_6_00000070081675455451224190000007961682644983802294_);stroke:#3D3D3D;stroke-miterlimit:10;}
	.st9{fill:url(#Alakzat_7_00000150809779955533299980000000800492707831011216_);stroke:#3D3D3D;stroke-miterlimit:10;}
	.st10{fill:url(#Alakzat_8_00000111883666994016081530000003059688442863660479_);stroke:#3D3D3D;stroke-miterlimit:10;}
	.st11{fill:url(#Alakzat_9_00000019658709759546896640000013357294787922461630_);stroke:#3D3D3D;stroke-miterlimit:10;}
	.st12{fill:url(#Alakzat_7_00000054964638110406321660000000555730822806316962_);stroke:#3D3D3D;stroke-miterlimit:10;}
	.st13{fill:url(#Alakzat_8_00000165936239048163130910000014749140730712780208_);stroke:#3D3D3D;stroke-miterlimit:10;}
</style>
<g id="Layer_1_00000152231066939347310880000013657449080370534806_">
	
		<radialGradient id="Alakzat_9_00000165924678899620279360000010451393304758410645_" cx="146.7782" cy="98.5441" r="58.3293" gradientTransform="matrix(0.903 0 0 0.903 9.9226 12.7125)" gradientUnits="userSpaceOnUse">
		<stop  offset="0" style="stop-color:#A6A6A6"/>
		<stop  offset="1" style="stop-color:#FFFFFF"/>
	</radialGradient>
	
		<path id="Alakzat_9" style="fill:url(#Alakzat_9_00000165924678899620279360000010451393304758410645_);stroke:#3D3D3D;stroke-miterlimit:10;" d="
		M156.7,57.4h11L188,77.6L122.2,146l-5.4-5.8L175,78.9l-3.4-3L113.1,136l-6.1-6.3l58.2-60.8l-3.3-3.3l-59,60.4l-6.1-6.1L156.7,57.4z
		"/>
	
		<radialGradient id="Alakzat_7_00000170983918658113435920000016472900035020617137_" cx="125.0282" cy="64.7341" r="36.9925" gradientTransform="matrix(0.903 0 0 0.903 9.9226 10.6662)" gradientUnits="userSpaceOnUse">
		<stop  offset="0" style="stop-color:#B0B0B0"/>
		<stop  offset="1" style="stop-color:#FFFFFF"/>
	</radialGradient>
	
		<path id="Alakzat_7" style="fill:url(#Alakzat_7_00000170983918658113435920000016472900035020617137_);stroke:#3D3D3D;stroke-miterlimit:10;" d="
		M92.1,42.6h61.4l9,9.4l-27.8,0.4L92.8,95.7L86,89.9l35.4-37.4l-38.3-0.6L92.1,42.6z"/>
	
		<radialGradient id="Alakzat_8_00000017475260078258255520000005195086897773495470_" cx="100.0928" cy="86.2444" r="42.2221" gradientTransform="matrix(0.903 0 0 0.903 9.9226 12.272)" gradientUnits="userSpaceOnUse">
		<stop  offset="0" style="stop-color:#B5B5B5"/>
		<stop  offset="1" style="stop-color:#FFFFFF"/>
	</radialGradient>
	
		<path id="Alakzat_8" style="fill:url(#Alakzat_8_00000017475260078258255520000005195086897773495470_);stroke:#3D3D3D;stroke-miterlimit:10;" d="
		M97.4,58.2l12.6,0.1L80.6,90c0,0.2,13.5,12.7,13.5,12.7l43.4-44.8l12.1-0.1l-56,58.8L57.8,79.6l19.9-21.8l12.6,0.4L70.5,79.5
		l3.6,3.5L97.4,58.2z"/>
</g>
<radialGradient id="Alakzat_9_00000136398127340397771860000009971978486733860228_" cx="146.7782" cy="98.5441" r="58.3293" gradientTransform="matrix(0.903 0 0 0.903 9.9226 12.7125)" gradientUnits="userSpaceOnUse">
	<stop  offset="0" style="stop-color:#A6A6A6"/>
	<stop  offset="1" style="stop-color:#FFFFFF"/>
</radialGradient>
<path id="Alakzat_9_00000081636580158662244490000009381909705217932219_" style="fill:url(#Alakzat_9_00000136398127340397771860000009971978486733860228_);stroke:#3D3D3D;stroke-miterlimit:10;" d="
	M156.7,57.4h11L188,77.6L122.2,146l-5.4-5.8L175,78.9l-3.4-3L113.1,136l-6.1-6.3l58.2-60.8l-3.3-3.3l-59,60.4l-6.1-6.1L156.7,57.4z"
	/>
<radialGradient id="Alakzat_7_00000080189819886953279790000004330613253507070382_" cx="125.0282" cy="64.7341" r="36.9925" gradientTransform="matrix(0.903 0 0 0.903 9.9226 10.6662)" gradientUnits="userSpaceOnUse">
	<stop  offset="0" style="stop-color:#B0B0B0"/>
	<stop  offset="1" style="stop-color:#FFFFFF"/>
</radialGradient>
<path id="Alakzat_7_00000052805872047487278000000015789386408710504106_" style="fill:url(#Alakzat_7_00000080189819886953279790000004330613253507070382_);stroke:#3D3D3D;stroke-miterlimit:10;" d="
	M92.1,42.6h61.4l9,9.4l-27.8,0.4L92.8,95.7L86,89.9l35.4-37.4l-38.3-0.6L92.1,42.6z"/>
<radialGradient id="Alakzat_8_00000013895935794782610550000011205953836098618529_" cx="100.0928" cy="86.2444" r="42.2221" gradientTransform="matrix(0.903 0 0 0.903 9.9226 12.272)" gradientUnits="userSpaceOnUse">
	<stop  offset="0" style="stop-color:#B5B5B5"/>
	<stop  offset="1" style="stop-color:#FFFFFF"/>
</radialGradient>
<path id="Alakzat_8_00000158017336748243351170000013718692238143076520_" style="fill:url(#Alakzat_8_00000013895935794782610550000011205953836098618529_);stroke:#3D3D3D;stroke-miterlimit:10;" d="
	M97.4,58.2l12.6,0.1L80.6,90c0,0.2,13.5,12.7,13.5,12.7l43.4-44.8l12.1-0.1l-56,58.8L57.8,79.6l19.9-21.8l12.6,0.4L70.5,79.5
	l3.6,3.5L97.4,58.2z"/>
</svg>
